<svg width="25" height="24" viewBox="0 0 25 24" fill="none" xmlns="http://www.w3.org/2000/svg">
<path d="M16.25 21H5.75C5.55109 21 5.36032 20.921 5.21967 20.7803C5.07902 20.6397 5 20.4489 5 20.25V6.75C5 6.55109 5.07902 6.36032 5.21967 6.21967C5.36032 6.07902 5.55109 6 5.75 6H13.25L17 9.75V20.25C17 20.4489 16.921 20.6397 16.7803 20.7803C16.6397 20.921 16.4489 21 16.25 21Z" stroke="currentColor" stroke-width="1.5" stroke-linecap="round" stroke-linejoin="round"/>
<path d="M8 6V3.75C8 3.55109 8.07902 3.36032 8.21967 3.21967C8.36032 3.07902 8.55109 3 8.75 3H16.25L20 6.75V17.25C20 17.4489 19.921 17.6397 19.7803 17.7803C19.6397 17.921 19.4489 18 19.25 18H17" stroke="currentColor" stroke-width="1.5" stroke-linecap="round" stroke-linejoin="round"/>
<path d="M8.75 14.25H13.25" stroke="currentColor" stroke-width="1.5" stroke-linecap="round" stroke-linejoin="round"/>
<path d="M8.75 17.25H13.25" stroke="currentColor" stroke-width="1.5" stroke-linecap="round" stroke-linejoin="round"/>
</svg>
